<svg width="16" height="16" viewBox="0 0 16 16" fill="none" xmlns="http://www.w3.org/2000/svg">
<g clip-path="url(#clip0_26_8559)">
<path d="M8 0.833008C11.958 0.833008 15.167 4.04196 15.167 8C15.167 11.958 11.958 15.167 8 15.167C4.04196 15.167 0.833008 11.958 0.833008 8C0.833008 4.04196 4.04196 0.833008 8 0.833008ZM8 4.66699C7.63192 4.66699 7.33318 4.96497 7.33301 5.33301V7.33301H5.33301C4.96497 7.33318 4.66699 7.63192 4.66699 8C4.66699 8.36808 4.96497 8.66682 5.33301 8.66699H7.33301V10.667C7.33318 11.035 7.63192 11.333 8 11.333C8.36808 11.333 8.66682 11.035 8.66699 10.667V8.66699H10.667C11.035 8.66682 11.333 8.36808 11.333 8C11.333 7.63192 11.035 7.33318 10.667 7.33301H8.66699V5.33301C8.66682 4.96497 8.36808 4.66699 8 4.66699Z" fill="#6A0EAD"/>
</g>
<defs>
<clipPath id="clip0_26_8559">
<rect width="16" height="16" fill="white"/>
</clipPath>
</defs>
</svg>
