<svg width="16" height="16" viewBox="0 0 16 16" fill="none" xmlns="http://www.w3.org/2000/svg">
<path d="M5.99805 12.7032L5.12891 13.5724C4.53647 14.1646 3.73317 14.4972 2.89551 14.4972H2C1.72386 14.4972 1.5 14.2733 1.5 13.9972V13.1046C1.5 12.2668 1.83251 11.4628 2.4248 10.8702L3.29492 10.0001L5.99805 12.7032ZM7.66504 11.0363L6.70605 11.9962L4.00293 9.29309L4.96191 8.33313L7.66504 11.0363ZM11.4551 1.84094C11.9102 1.38576 12.6487 1.38647 13.1035 1.84192L14.1602 2.89954C14.6144 3.35459 14.6139 4.09235 14.1592 4.547L8.37305 10.3322L5.66895 7.62805L11.4551 1.84094Z" fill="#6A0EAD"/>
</svg>
