<svg width="25" height="24" viewBox="0 0 25 24" fill="none" xmlns="http://www.w3.org/2000/svg">
<path d="M8.79297 6.29297C9.18349 5.90247 9.81651 5.90246 10.207 6.29297C10.5975 6.68349 10.5975 7.31651 10.207 7.70703L6.91406 11H20.5C21.0523 11 21.5 11.4477 21.5 12C21.5 12.5523 21.0523 13 20.5 13H6.91406L10.207 16.293C10.5976 16.6835 10.5976 17.3165 10.207 17.707C9.81651 18.0976 9.18349 18.0976 8.79297 17.707L3.79297 12.707C3.69263 12.6067 3.61811 12.4904 3.56934 12.3662C3.52584 12.2556 3.50114 12.1346 3.5 12.0088V11.9971C3.50041 11.8551 3.53022 11.7199 3.58398 11.5977C3.6236 11.5074 3.67756 11.4214 3.74512 11.3438C3.7619 11.3245 3.77965 11.306 3.79785 11.2881L8.79297 6.29297Z" fill="#6A0EAD"/>
</svg>
