<svg width="17" height="16" viewBox="0 0 17 16" fill="none" xmlns="http://www.w3.org/2000/svg">
<path d="M14.0151 8V12.6667C14.0151 13.0203 13.8747 13.3594 13.6246 13.6095C13.3746 13.8595 13.0354 14 12.6818 14H3.34847C2.99485 14 2.65571 13.8595 2.40566 13.6095C2.15561 13.3594 2.01514 13.0203 2.01514 12.6667V8H14.0151ZM10.6818 2C10.8586 2 11.0282 2.07024 11.1532 2.19526C11.2782 2.32029 11.3485 2.48986 11.3485 2.66667V3.33333H12.6818C13.0354 3.33333 13.3746 3.47381 13.6246 3.72386C13.8747 3.97391 14.0151 4.31304 14.0151 4.66667V6.66667H2.01514V4.66667C2.01514 4.31304 2.15561 3.97391 2.40566 3.72386C2.65571 3.47381 2.99485 3.33333 3.34847 3.33333H4.6818V2.66667C4.6818 2.48986 4.75204 2.32029 4.87707 2.19526C5.00209 2.07024 5.17166 2 5.34847 2C5.52528 2 5.69485 2.07024 5.81987 2.19526C5.9449 2.32029 6.01514 2.48986 6.01514 2.66667V3.33333H10.0151V2.66667C10.0151 2.48986 10.0854 2.32029 10.2104 2.19526C10.3354 2.07024 10.505 2 10.6818 2Z" fill="#6A0EAD"/>
</svg>
