<svg width="16" height="16" viewBox="0 0 16 16" fill="none" xmlns="http://www.w3.org/2000/svg">
<g clip-path="url(#clip0_26_8579)">
<path d="M8.00098 0C12.419 0.000140239 16 3.58163 16 7.99902C16 8.7241 15.93 9.45316 15.5762 10.0381C15.1965 10.6655 14.5577 11.0272 13.6611 11.1553C12.7539 11.2849 11.9769 11.2852 11.3447 11.2852H11.3359C10.6747 11.2852 10.2407 11.2896 9.90625 11.3867C9.62931 11.4672 9.42288 11.6113 9.24414 11.9688C9.09577 12.2655 9.10156 12.456 9.14062 12.6045C9.18912 12.7886 9.30104 12.9644 9.48242 13.2334L9.50586 13.2695C9.72568 13.5947 10.0469 14.0696 10.0469 14.6953C10.0468 15.003 9.96491 15.2887 9.77344 15.5186C9.58704 15.7422 9.34416 15.8561 9.12988 15.916C8.79948 16.0084 8.39854 16.002 8.13086 15.998C8.08291 15.9973 8.03922 15.9971 8.00098 15.9971C3.583 15.9971 0.0012311 12.4162 0.000976562 7.99902C0.000976562 3.58154 3.58284 0 8.00098 0ZM5.00586 10.04C4.90051 9.64291 4.49293 9.40647 4.0957 9.51172L4.08984 9.51367C3.69267 9.61891 3.45546 10.0257 3.56055 10.4229C3.66582 10.82 4.07347 11.0573 4.4707 10.9521L4.47754 10.9502C4.87464 10.8448 5.11112 10.4372 5.00586 10.04ZM11.3496 4.46387C10.4249 4.46387 9.6748 5.21408 9.6748 6.13867C9.67494 7.06315 10.425 7.8125 11.3496 7.8125C12.2742 7.81241 13.0233 7.06309 13.0234 6.13867C13.0234 5.21414 12.2743 4.46396 11.3496 4.46387ZM6.14062 3.7207C5.2159 3.7207 4.46582 4.46994 4.46582 5.39453C4.46591 6.31905 5.21595 7.06836 6.14062 7.06836C7.06515 7.06819 7.81437 6.31894 7.81445 5.39453C7.81445 4.47005 7.06521 3.72087 6.14062 3.7207Z" fill="#6A0EAD"/>
</g>
<defs>
<clipPath id="clip0_26_8579">
<rect width="15.999" height="15.9999" fill="white" transform="translate(0.000976562)"/>
</clipPath>
</defs>
</svg>
