<svg width="32" height="32" viewBox="0 0 32 32" fill="none" xmlns="http://www.w3.org/2000/svg">
<rect width="32" height="32" rx="8" fill="black" fill-opacity="0.04"/>
<path d="M17.2246 8.83398C17.7579 8.83404 18.2401 9.15238 18.4502 9.64258L19.1035 11.167H21.9971C22.3653 11.167 22.6641 11.4658 22.6641 11.834C22.6641 12.2022 22.3653 12.501 21.9971 12.501H21.4482L20.9062 21.4443C20.8475 22.4118 20.0463 23.1667 19.0771 23.167H12.9199C11.9505 23.167 11.1485 22.412 11.0898 21.4443L10.5479 12.501H9.99707C9.62903 12.5008 9.33105 12.2021 9.33105 11.834C9.33105 11.4659 9.62903 11.1672 9.99707 11.167H12.8916L13.5449 9.64258C13.755 9.15233 14.2371 8.83398 14.7705 8.83398H17.2246ZM15 17.833C14.724 17.833 14.5002 18.057 14.5 18.333C14.5 18.6091 14.7239 18.833 15 18.833H17C17.2761 18.833 17.5 18.6091 17.5 18.333C17.4998 18.057 17.276 17.833 17 17.833H15ZM14 15.167C13.7239 15.167 13.5 15.3909 13.5 15.667C13.5002 15.943 13.724 16.167 14 16.167H18C18.276 16.167 18.4998 15.943 18.5 15.667C18.5 15.3909 18.2761 15.167 18 15.167H14ZM14.8584 10.167C14.8051 10.167 14.7564 10.199 14.7354 10.248L14.3418 11.167H17.6533L17.2588 10.248C17.2378 10.1992 17.1899 10.1671 17.1367 10.167H14.8584Z" fill="#FF0000"/>
</svg>
