<svg width="56" height="56" viewBox="0 0 56 56" fill="none" xmlns="http://www.w3.org/2000/svg">
<rect width="56" height="56" rx="16" fill="#FF0000" fill-opacity="0.1"/>
<path d="M30.6665 21.3333V12.6133C31.8999 13.0791 33.0202 13.8017 33.9532 14.7333L38.5985 19.3813C39.5311 20.3132 40.2543 21.4332 40.7198 22.6667H31.9998C31.6462 22.6667 31.3071 22.5262 31.057 22.2761C30.807 22.0261 30.6665 21.687 30.6665 21.3333ZM41.3332 25.98V37.3333C41.3311 39.1008 40.628 40.7953 39.3782 42.045C38.1284 43.2948 36.434 43.9979 34.6665 44H21.3332C19.5657 43.9979 17.8712 43.2948 16.6215 42.045C15.3717 40.7953 14.6686 39.1008 14.6665 37.3333V18.6667C14.6686 16.8992 15.3717 15.2047 16.6215 13.955C17.8712 12.7052 19.5657 12.0021 21.3332 12H27.3532C27.5705 12 27.7852 12.0173 27.9998 12.032V21.3333C27.9998 22.3942 28.4213 23.4116 29.1714 24.1618C29.9216 24.9119 30.939 25.3333 31.9998 25.3333H41.3012C41.3158 25.548 41.3332 25.7627 41.3332 25.98ZM29.8852 34.6667L32.2758 32.276C32.5187 32.0245 32.6531 31.6877 32.6501 31.3381C32.647 30.9885 32.5068 30.6541 32.2596 30.4069C32.0124 30.1597 31.678 30.0195 31.3284 30.0164C30.9788 30.0134 30.642 30.1478 30.3905 30.3907L27.9998 32.7813L25.6092 30.3907C25.3577 30.1478 25.0209 30.0134 24.6713 30.0164C24.3217 30.0195 23.9873 30.1597 23.7401 30.4069C23.4929 30.6541 23.3526 30.9885 23.3496 31.3381C23.3466 31.6877 23.481 32.0245 23.7238 32.276L26.1145 34.6667L23.7238 37.0573C23.5965 37.1803 23.4949 37.3275 23.425 37.4901C23.3552 37.6528 23.3184 37.8278 23.3168 38.0048C23.3153 38.1818 23.349 38.3574 23.4161 38.5213C23.4831 38.6851 23.5821 38.834 23.7073 38.9592C23.8325 39.0844 23.9814 39.1834 24.1452 39.2504C24.3091 39.3175 24.4847 39.3512 24.6617 39.3497C24.8387 39.3481 25.0137 39.3113 25.1764 39.2415C25.339 39.1716 25.4862 39.07 25.6092 38.9427L27.9998 36.552L30.3905 38.9427C30.642 39.1855 30.9788 39.3199 31.3284 39.3169C31.678 39.3139 32.0124 39.1736 32.2596 38.9264C32.5068 38.6792 32.647 38.3448 32.6501 37.9952C32.6531 37.6456 32.5187 37.3088 32.2758 37.0573L29.8852 34.6667Z" fill="#FF0000"/>
</svg>
