<svg width="16" height="16" viewBox="0 0 16 16" fill="none" xmlns="http://www.w3.org/2000/svg">
<path d="M9.22461 0.833984C9.75792 0.834042 10.2401 1.15238 10.4502 1.64258L11.1035 3.16699H13.9971C14.3653 3.16699 14.6641 3.46579 14.6641 3.83398C14.6641 4.20217 14.3653 4.50098 13.9971 4.50098H13.4482L12.9062 13.4443C12.8475 14.4119 12.0456 15.167 11.0762 15.167H4.91992C3.95056 15.1669 3.14854 14.4119 3.08984 13.4443L2.54785 4.50098H1.99707C1.62903 4.5008 1.33105 4.20207 1.33105 3.83398C1.33105 3.4659 1.62903 3.16717 1.99707 3.16699H4.8916L5.54492 1.64258C5.75503 1.15233 6.23714 0.833984 6.77051 0.833984H9.22461ZM7 9.83301C6.72402 9.83307 6.50018 10.0571 6.5 10.333C6.5 10.6091 6.72391 10.8329 7 10.833H9C9.27609 10.833 9.5 10.6091 9.5 10.333C9.49982 10.0571 9.27598 9.83307 9 9.83301H7ZM6 7.16699C5.72391 7.16705 5.5 7.39089 5.5 7.66699C5.50018 7.94295 5.72402 8.16693 6 8.16699H10C10.276 8.16693 10.4998 7.94295 10.5 7.66699C10.5 7.39089 10.2761 7.16705 10 7.16699H6ZM6.8584 2.16699C6.80506 2.16699 6.75636 2.19902 6.73535 2.24805L6.3418 3.16699H9.65332L9.25879 2.24805C9.23776 2.19918 9.18993 2.16705 9.13672 2.16699H6.8584Z" fill="white"/>
</svg>
