<svg width="17" height="16" viewBox="0 0 17 16" fill="none" xmlns="http://www.w3.org/2000/svg">
<path d="M8.5 0C12.9183 1.61064e-08 16.5 3.58172 16.5 8C16.5 12.4183 12.9183 16 8.5 16C4.08172 16 0.5 12.4183 0.5 8C0.5 3.58172 4.08172 0 8.5 0ZM8.5 4.2793C8.089 4.2793 7.75586 4.61243 7.75586 5.02344V8C7.75586 8.19737 7.83407 8.38681 7.97363 8.52637L9.46191 10.0146C9.75254 10.3053 10.224 10.3053 10.5146 10.0146C10.8053 9.72403 10.8053 9.25254 10.5146 8.96191L9.24414 7.69141V5.02344C9.24414 4.61243 8.911 4.2793 8.5 4.2793Z" fill="#6A0EAD"/>
</svg>
