<svg width="16" height="16" viewBox="0 0 16 16" fill="none" xmlns="http://www.w3.org/2000/svg">
<path fill-rule="evenodd" clip-rule="evenodd" d="M7.99984 0.833313C4.77346 0.833313 2.1665 3.4738 2.1665 6.72042C2.1665 8.58361 2.90945 10.037 4.33489 11.3002C5.26228 12.122 6.9282 13.8693 7.57292 14.9268C7.66223 15.0733 7.82044 15.1638 7.992 15.1665C8.16357 15.1692 8.32453 15.0837 8.41839 14.9401C9.10478 13.8897 10.7463 12.1141 11.6648 11.3002C13.0902 10.037 13.8332 8.58361 13.8332 6.72042C13.8332 3.4738 11.2262 0.833313 7.99984 0.833313ZM8.02327 8.99998C9.31194 8.99998 10.3566 7.95531 10.3566 6.66665C10.3566 5.37798 9.31194 4.33331 8.02327 4.33331C6.73461 4.33331 5.68994 5.37798 5.68994 6.66665C5.68994 7.95531 6.73461 8.99998 8.02327 8.99998Z" fill="#6A0EAD"/>
</svg>
