<svg width="16" height="16" viewBox="0 0 16 16" fill="none" xmlns="http://www.w3.org/2000/svg">
<path fill-rule="evenodd" clip-rule="evenodd" d="M6.39968 2.40676C5.36634 2.97343 4.65969 4.07335 4.65969 5.33335C4.65969 6.00669 4.85967 6.64002 5.20634 7.16669C3.87967 7.10002 2.82635 6.00669 2.82635 4.66669C2.82635 3.32669 3.94635 2.16669 5.32635 2.16669C5.70635 2.16669 6.07301 2.25343 6.39968 2.40676ZM5.51967 8.16669C3.86634 8.66002 2.66634 10.1867 2.66634 12V13.1667H1.33301C1.05967 13.1667 0.833008 12.94 0.833008 12.6667V11.3334C0.833008 9.58669 2.25301 8.16669 3.99967 8.16669H5.51967ZM7.99967 2.83335C6.61967 2.83335 5.49967 3.95335 5.49967 5.33335C5.49967 6.71335 6.61967 7.83335 7.99967 7.83335C9.37967 7.83335 10.4997 6.71335 10.4997 5.33335C10.4997 3.95335 9.37967 2.83335 7.99967 2.83335ZM6.66634 8.83335C4.91967 8.83335 3.49967 10.2534 3.49967 12V13.3334C3.49967 13.6067 3.72634 13.8334 3.99967 13.8334H11.9997C12.273 13.8334 12.4997 13.6067 12.4997 13.3334V12C12.4997 10.2534 11.0797 8.83335 9.33301 8.83335H6.66634ZM13.1663 4.66669C13.1663 6.00669 12.113 7.10002 10.7864 7.16669C11.133 6.64002 11.333 6.00669 11.333 5.33335C11.333 4.07335 10.633 2.97343 9.59302 2.40676C9.91968 2.25343 10.2797 2.16669 10.6663 2.16669C12.0463 2.16669 13.1663 3.28669 13.1663 4.66669ZM14.6663 13.1667H13.333V12C13.333 10.1867 12.133 8.66002 10.4797 8.16669H11.9997C13.7463 8.16669 15.1663 9.58669 15.1663 11.3334V12.6667C15.1663 12.94 14.9397 13.1667 14.6663 13.1667Z" fill="#6A0EAD"/>
</svg>
