<svg width="16" height="16" viewBox="0 0 16 16" fill="none" xmlns="http://www.w3.org/2000/svg">
<path d="M0.862305 0.862366C1.12265 0.602016 1.54434 0.602016 1.80469 0.862366L15.1377 14.1954C15.398 14.4557 15.398 14.8774 15.1377 15.1378C14.8773 15.3981 14.4557 15.3981 14.1953 15.1378L12.2246 13.1671H10.6172C10.3801 14.4043 9.28346 15.3328 7.98438 15.3331C6.6741 15.3331 5.61227 14.3955 5.38184 13.1671H2.66699C2.02268 13.1671 1.50003 12.6444 1.5 12.0001V11.0001C1.5 10.8865 1.53845 10.7762 1.60938 10.6876L2.83301 9.15826V8.00006C2.83301 6.81381 3.23411 5.72072 3.90625 4.84869L0.862305 1.80475C0.601955 1.5444 0.601955 1.12272 0.862305 0.862366ZM6.76172 13.1671C6.95553 13.6583 7.42738 14.0001 7.98438 14.0001C8.54958 13.9999 9.03258 13.6529 9.2334 13.1671H6.76172ZM8.40918 0.833069C9.20527 0.833346 9.7674 1.61388 9.51562 2.3692L9.30469 3.00006C11.5264 3.5782 13.167 5.59736 13.167 8.00006V9.15826L14.3906 10.6876C14.4615 10.7762 14.5 10.8865 14.5 11.0001V11.3331C14.5 11.4992 14.4187 11.6464 14.2939 11.7374C14.2061 11.8014 14.0886 11.7664 14.0117 11.6895L5.96484 3.64362C5.89126 3.57004 5.85537 3.45899 5.91113 3.37115C5.9667 3.28371 6.05014 3.21284 6.1543 3.17291C6.33012 3.10567 6.51099 3.04804 6.69531 3.00006L6.48535 2.3692C6.23355 1.61381 6.79558 0.833195 7.5918 0.833069H8.40918Z" fill="#6A0EAD"/>
</svg>
