<svg width="31" height="30" viewBox="0 0 31 30" fill="none" xmlns="http://www.w3.org/2000/svg">
<rect x="0.0151367" width="30" height="30" rx="8" fill="#6A0EAD"/>
<path d="M12.9868 15.9697C13.2797 15.6769 13.7545 15.6769 14.0474 15.9697C14.3402 16.2626 14.3402 16.7374 14.0474 17.0303L7.83545 23.2432C7.96502 23.2368 8.10125 23.2274 8.2417 23.2158C8.63354 23.1834 9.03386 23.1355 9.40479 23.0908C9.4338 23.0873 9.46305 23.0835 9.4917 23.0801C9.86485 23.0352 10.2444 22.99 10.5044 22.9863C10.9185 22.9804 11.2592 23.3115 11.2651 23.7256C11.271 24.1397 10.94 24.4804 10.5259 24.4863C10.3638 24.4886 10.0773 24.5204 9.67041 24.5693C9.64074 24.5729 9.61013 24.5764 9.57959 24.5801C9.21328 24.6242 8.78679 24.6761 8.36572 24.7109C7.91371 24.7483 7.43401 24.769 7.01416 24.7353C6.8039 24.7185 6.58521 24.6867 6.38135 24.625C6.18394 24.5652 5.94625 24.4613 5.75146 24.2666C5.5566 24.0717 5.45287 23.8332 5.39307 23.6357C5.33138 23.4319 5.29857 23.2131 5.28174 23.0029C5.24817 22.5833 5.26981 22.1041 5.30713 21.6523C5.34193 21.2311 5.39287 20.8039 5.43701 20.4375C5.44068 20.4071 5.44518 20.3772 5.44873 20.3476C5.49761 19.9409 5.5294 19.6543 5.53174 19.4922C5.53762 19.0782 5.87755 18.7473 6.2915 18.7529C6.70568 18.7588 7.03762 19.0995 7.03174 19.5137C7.028 19.7738 6.98282 20.1533 6.93799 20.5264C6.93455 20.555 6.93074 20.5842 6.92725 20.6133C6.8826 20.9841 6.83462 21.3837 6.80225 21.7754C6.7906 21.9163 6.78123 22.0527 6.7749 22.1826L12.9868 15.9697ZM23.0161 5.26659C23.2263 5.28345 23.4451 5.31621 23.6489 5.37792C23.8463 5.43774 24.0841 5.54159 24.2788 5.73632C24.4735 5.93111 24.5774 6.16879 24.6372 6.3662C24.6989 6.57009 24.7317 6.78874 24.7485 6.99902C24.7822 7.41887 24.7605 7.89857 24.7231 8.35058C24.6884 8.77165 24.6364 9.19814 24.5923 9.56445C24.5886 9.59499 24.5851 9.6256 24.5815 9.65527C24.5327 10.0622 24.5008 10.3487 24.4985 10.5107C24.4926 10.9249 24.1519 11.2559 23.7378 11.25C23.3237 11.244 22.9927 10.9033 22.9985 10.4893C23.0022 10.2292 23.0474 9.84971 23.0923 9.47655C23.0957 9.44791 23.0995 9.41865 23.103 9.38964C23.1477 9.01871 23.1957 8.61839 23.228 8.22655C23.2397 8.08488 23.2491 7.94797 23.2554 7.81738L17.0474 14.0264C16.7545 14.3192 16.2797 14.3192 15.9868 14.0264C15.6939 13.7335 15.694 13.2587 15.9868 12.9658L22.1919 6.75976C22.0629 6.76608 21.9273 6.77556 21.7876 6.7871C21.3959 6.81947 20.9963 6.86746 20.6255 6.9121C20.5965 6.9156 20.5672 6.9194 20.5386 6.92284C20.1655 6.96768 19.786 7.01287 19.5259 7.01659C19.1117 7.02248 18.771 6.69053 18.7651 6.27636C18.7595 5.86241 19.0904 5.52248 19.5044 5.51659C19.6665 5.51427 19.953 5.48248 20.3599 5.43359C20.3894 5.43004 20.4193 5.42553 20.4497 5.42187C20.8161 5.37773 21.2433 5.32679 21.6646 5.29198C22.1165 5.25464 22.5963 5.23297 23.0161 5.26659Z" fill="white"/>
</svg>
