<svg width="16" height="16" viewBox="0 0 16 16" fill="none" xmlns="http://www.w3.org/2000/svg">
<g clip-path="url(#clip0_696_2659)">
<path d="M6.33301 0.666992C9.46251 0.666992 11.9998 3.20354 12 6.33301C12 7.65733 11.5435 8.8741 10.7822 9.83887L11.8047 10.8623L11.7793 10.8867C12.2287 10.754 12.7352 10.866 13.0898 11.2207L14.7793 12.9102C15.2955 13.4263 15.2955 14.2631 14.7793 14.7793C14.2631 15.2955 13.4263 15.2955 12.9102 14.7793L11.2207 13.0898C10.866 12.7352 10.754 12.2287 10.8867 11.7793L10.8623 11.8047L9.83887 10.7822C8.8741 11.5435 7.65733 12 6.33301 12C3.20354 11.9998 0.666992 9.46251 0.666992 6.33301C0.667168 3.20365 3.20365 0.667168 6.33301 0.666992ZM6.33301 2C3.94003 2.00018 2.00018 3.94003 2 6.33301C2 8.72613 3.93992 10.6668 6.33301 10.667C8.72624 10.667 10.667 8.72624 10.667 6.33301C10.6668 3.93992 8.72613 2 6.33301 2Z" fill="#6A0EAD"/>
</g>
<defs>
<clipPath id="clip0_696_2659">
<rect width="16" height="16" fill="white"/>
</clipPath>
</defs>
</svg>
