<svg width="22" height="23" viewBox="0 0 22 23" fill="none" xmlns="http://www.w3.org/2000/svg">
<path d="M11.0001 7.75024C10.2584 7.75024 9.53336 7.97018 8.91668 8.38223C8.29999 8.79429 7.81934 9.37996 7.53552 10.0652C7.25169 10.7504 7.17743 11.5044 7.32212 12.2318C7.46681 12.9593 7.82397 13.6274 8.34841 14.1519C8.87286 14.6763 9.54105 15.0335 10.2685 15.1782C10.9959 15.3229 11.7499 15.2486 12.4351 14.9648C13.1203 14.681 13.706 14.2003 14.1181 13.5836C14.5301 12.9669 14.7501 12.2419 14.7501 11.5002C14.7471 10.5066 14.3511 9.55449 13.6484 8.85187C12.9458 8.14925 11.9937 7.75321 11.0001 7.75024ZM19.0963 11.5002C19.0944 11.8506 19.0687 12.2005 19.0194 12.5474L21.3018 14.3343C21.4012 14.4164 21.4682 14.5311 21.4907 14.6581C21.5133 14.785 21.49 14.9158 21.4251 15.0271L19.266 18.7546C19.2004 18.865 19.0979 18.9486 18.9767 18.9909C18.8555 19.0332 18.7232 19.0313 18.6032 18.9857L15.9196 17.9076C15.3608 18.3379 14.7493 18.695 14.0999 18.9702L13.6987 21.8193C13.6762 21.9469 13.6101 22.0628 13.5117 22.1471C13.4133 22.2314 13.2887 22.2789 13.1591 22.2815H8.841C8.71381 22.279 8.59121 22.2335 8.49322 22.1524C8.39523 22.0712 8.32763 21.9593 8.30147 21.8348L7.90022 18.9857C7.24907 18.7137 6.63711 18.356 6.08053 17.9221L3.39694 19.0002C3.27698 19.0459 3.14476 19.0478 3.02354 19.0056C2.90231 18.9634 2.79983 18.8799 2.73413 18.7696L0.575067 15.0426C0.510078 14.9313 0.486796 14.8004 0.50938 14.6735C0.531964 14.5466 0.598943 14.4319 0.698348 14.3498L2.98069 12.5629C2.93201 12.2107 2.90633 11.8558 2.90382 11.5002C2.90577 11.1498 2.93145 10.8 2.98069 10.4531L0.698348 8.66618C0.598943 8.5841 0.531964 8.46935 0.50938 8.34243C0.486796 8.21551 0.510078 8.0847 0.575067 7.97337L2.73413 4.24587C2.79976 4.13552 2.90221 4.05186 3.02344 4.00959C3.14467 3.96732 3.27693 3.96916 3.39694 4.01477L6.08053 5.0929C6.63934 4.66259 7.25086 4.30548 7.90022 4.03024L8.30147 1.18118C8.32393 1.05356 8.39001 0.937706 8.48841 0.853406C8.58682 0.769105 8.71145 0.721595 8.841 0.718994H13.1591C13.2863 0.72147 13.4089 0.76699 13.5069 0.848124C13.6049 0.929257 13.6725 1.04121 13.6987 1.16571L14.0999 4.01477C14.7519 4.28664 15.3646 4.64433 15.9219 5.07837L18.6032 4.00024C18.7231 3.95458 18.8554 3.95268 18.9766 3.99486C19.0978 4.03704 19.2003 4.12061 19.266 4.23087L21.4251 7.95837C21.49 8.0697 21.5133 8.20051 21.4907 8.32743C21.4682 8.45435 21.4012 8.5691 21.3018 8.65118L19.0194 10.4381C19.0681 10.7901 19.0938 11.1449 19.0963 11.5002Z" fill="#6A0EAD"/>
</svg>
