<svg width="16" height="16" viewBox="0 0 16 16" fill="none" xmlns="http://www.w3.org/2000/svg">
<path d="M12.418 9.03613C12.8863 8.76576 13.4633 8.76577 13.9316 9.03613C14.106 9.13682 14.3023 9.33317 14.4844 9.51563C14.6668 9.6977 14.8632 9.89398 14.9639 10.0684C15.2342 10.5367 15.2342 11.1137 14.9639 11.582C14.8632 11.7564 14.7068 11.9127 14.5244 12.0947L12.2793 14.3398C11.9691 14.65 11.5943 14.7949 11.2578 14.8809C11.0898 14.9238 10.4598 15.039 10.3066 15.0654C10.1027 15.1091 9.89832 15.1533 9.72949 15.1641C9.54354 15.1758 9.27432 15.1571 9.05859 14.9414C8.84288 14.7257 8.82416 14.4565 8.83594 14.2705C8.84667 14.1017 8.8909 13.8973 8.93457 13.6934C8.96103 13.5402 9.07624 12.9102 9.11914 12.7422C9.20506 12.4057 9.34997 12.0309 9.66016 11.7207L11.9053 9.47559C12.0873 9.29318 12.2436 9.13679 12.418 9.03613ZM14.0928 5.5C14.2763 5.5 14.3684 5.50039 14.4268 5.55762C14.4847 5.61487 14.4867 5.70618 14.4902 5.8877C14.5003 6.41137 14.5 6.98974 14.5 7.62793V7.70508C14.5 7.85187 14.4996 7.9252 14.4805 7.96582C14.4477 8.0351 14.3984 8.07057 14.3223 8.0791C14.2776 8.08409 14.198 8.05656 14.0391 8.00195C13.3457 7.76385 12.5498 7.80525 11.918 8.16992C11.6255 8.33878 11.3847 8.58117 11.2275 8.73926L8.95312 11.0137C8.46306 11.5037 8.25759 12.0752 8.15039 12.4951C8.09798 12.7005 7.98315 13.3254 7.95215 13.502L7.9502 13.5137C7.91128 13.6948 7.85344 13.9626 7.83789 14.207C7.83203 14.2992 7.82879 14.3457 7.81641 14.376C7.79306 14.4328 7.75359 14.4697 7.69531 14.4893C7.66427 14.4997 7.62441 14.5 7.54492 14.5C6.19733 14.4995 4.96028 14.4922 4.125 14.3799C3.20737 14.2565 2.4793 13.9979 1.90723 13.4258C1.33522 12.8537 1.07749 12.1257 0.954102 11.208C0.833698 10.3125 0.832999 9.1654 0.833008 7.70508V7.62891C0.833004 6.99048 0.833694 6.41153 0.84375 5.8877C0.847243 5.70584 0.848917 5.61485 0.907227 5.55762C0.965525 5.50043 1.05695 5.5 1.24023 5.5L14.0928 5.5ZM4 10.167C3.72386 10.167 3.5 10.3909 3.5 10.667C3.50018 10.943 3.72397 11.167 4 11.167L4.66699 11.167C4.94287 11.1668 5.16681 10.9429 5.16699 10.667C5.16699 10.391 4.94299 10.1672 4.66699 10.167L4 10.167ZM6.66699 10.167C6.39085 10.167 6.16699 10.3909 6.16699 10.667C6.16717 10.943 6.39096 11.167 6.66699 11.167H7.66699C7.94287 11.1668 8.16681 10.9429 8.16699 10.667C8.16699 10.391 7.94299 10.1672 7.66699 10.167H6.66699ZM4 7.5C3.72386 7.5 3.5 7.72386 3.5 8C3.50001 8.27614 3.72386 8.5 4 8.5H4.66699C4.94298 8.49982 5.16699 8.27603 5.16699 8C5.16699 7.72397 4.94299 7.50018 4.66699 7.5H4ZM6.66699 7.5C6.39085 7.5 6.16699 7.72386 6.16699 8C6.167 8.27614 6.39085 8.5 6.66699 8.5L10 8.5C10.2761 8.5 10.5 8.27614 10.5 8C10.5 7.72386 10.2761 7.5 10 7.5L6.66699 7.5ZM7.70508 0.833008C9.1654 0.832999 10.3125 0.833698 11.208 0.954102C12.1257 1.07749 12.8537 1.33522 13.4258 1.90723C13.9979 2.4793 14.2565 3.20737 14.3799 4.125C14.3987 4.26514 14.4077 4.3356 14.3789 4.3916C14.3645 4.4195 14.3421 4.4458 14.3164 4.46387C14.2647 4.50009 14.1913 4.5 14.0449 4.5L1.28809 4.5C1.14221 4.5 1.06919 4.49989 1.01758 4.46387C0.991796 4.44579 0.968581 4.41956 0.954102 4.3916C0.925376 4.33563 0.935275 4.26503 0.954102 4.125C1.07751 3.20741 1.33518 2.47928 1.90723 1.90723C2.47928 1.33518 3.20741 1.07751 4.125 0.954102C5.02061 0.83369 6.16844 0.832999 7.62891 0.833008H7.70508Z" fill="white"/>
</svg>
