<svg width="30" height="30" viewBox="0 0 30 30" fill="none" xmlns="http://www.w3.org/2000/svg">
<path d="M0 12C0 5.37258 5.37258 0 12 0H18C24.6274 0 30 5.37258 30 12V18C30 24.6274 24.6274 30 18 30H12C5.37258 30 0 24.6274 0 18V12Z" fill="#6A0EAD"/>
<path d="M19.418 16.0362C19.8863 15.7658 20.4633 15.7658 20.9316 16.0362C21.106 16.1369 21.3023 16.3332 21.4844 16.5157C21.6668 16.6977 21.8632 16.894 21.9639 17.0684C22.2342 17.5367 22.2342 18.1137 21.9639 18.5821C21.8632 18.7564 21.7068 18.9127 21.5244 19.0948L19.2793 21.3399C18.9691 21.6501 18.5943 21.795 18.2578 21.8809C18.0898 21.9238 17.4598 22.039 17.3066 22.0655C17.1027 22.1091 16.8983 22.1534 16.7295 22.1641C16.5435 22.1759 16.2743 22.1571 16.0586 21.9414C15.8429 21.7257 15.8242 21.4565 15.8359 21.2705C15.8467 21.1017 15.8909 20.8974 15.9346 20.6934C15.961 20.5403 16.0762 19.9102 16.1191 19.7422C16.2051 19.4057 16.35 19.0309 16.6602 18.7207L18.9053 16.4756C19.0873 16.2932 19.2436 16.1368 19.418 16.0362ZM21.0928 12.5C21.2763 12.5 21.3684 12.5004 21.4268 12.5577C21.4847 12.6149 21.4867 12.7062 21.4902 12.8877C21.5003 13.4114 21.5 13.9898 21.5 14.628V14.7051C21.5 14.8519 21.4996 14.9252 21.4805 14.9659C21.4477 15.0351 21.3984 15.0706 21.3223 15.0791C21.2776 15.0841 21.198 15.0566 21.0391 15.002C20.3457 14.7639 19.5498 14.8053 18.918 15.17C18.6255 15.3388 18.3847 15.5812 18.2275 15.7393L15.9531 18.0137C15.4631 18.5038 15.2576 19.0753 15.1504 19.4952C15.098 19.7005 14.9832 20.3255 14.9521 20.502L14.9502 20.5137C14.9113 20.6949 14.8534 20.9626 14.8379 21.2071C14.832 21.2993 14.8288 21.3457 14.8164 21.376C14.7931 21.4328 14.7536 21.4697 14.6953 21.4893C14.6643 21.4997 14.6244 21.5001 14.5449 21.5C13.1973 21.4995 11.9603 21.4922 11.125 21.3799C10.2074 21.2565 9.4793 20.9979 8.90723 20.4258C8.33522 19.8537 8.07749 19.1257 7.9541 18.208C7.8337 17.3125 7.833 16.1654 7.83301 14.7051V14.6289C7.833 13.9905 7.83369 13.4116 7.84375 12.8877C7.84724 12.7059 7.84892 12.6149 7.90723 12.5577C7.96552 12.5005 8.05695 12.5 8.24023 12.5L21.0928 12.5ZM11 17.167C10.7239 17.167 10.5 17.3909 10.5 17.667C10.5002 17.943 10.724 18.167 11 18.167H11.667C11.9429 18.1669 12.1668 17.9429 12.167 17.667C12.167 17.391 11.943 17.1672 11.667 17.167H11ZM13.667 17.167C13.3908 17.167 13.167 17.3909 13.167 17.667C13.1672 17.943 13.391 18.167 13.667 18.167H14.667C14.9429 18.1669 15.1668 17.9429 15.167 17.667C15.167 17.391 14.943 17.1672 14.667 17.167H13.667ZM11 14.5C10.7239 14.5 10.5 14.7239 10.5 15C10.5 15.2762 10.7239 15.5 11 15.5H11.667C11.943 15.4999 12.167 15.2761 12.167 15C12.167 14.724 11.943 14.5002 11.667 14.5H11ZM13.667 14.5C13.3908 14.5 13.167 14.7239 13.167 15C13.167 15.2762 13.3909 15.5 13.667 15.5L17 15.5C17.2761 15.5 17.5 15.2762 17.5 15C17.5 14.7239 17.2761 14.5 17 14.5L13.667 14.5ZM14.7051 7.83305C16.1654 7.83304 17.3125 7.83374 18.208 7.95414C19.1257 8.07752 19.8537 8.33526 20.4258 8.90726C20.9979 9.47934 21.2565 10.2074 21.3799 11.125C21.3987 11.2652 21.4077 11.3356 21.3789 11.3916C21.3645 11.4195 21.3421 11.4458 21.3164 11.4639C21.2647 11.5001 21.1913 11.5 21.0449 11.5L8.28809 11.5C8.14221 11.5 8.06919 11.4999 8.01758 11.4639C7.9918 11.4458 7.96858 11.4196 7.9541 11.3916C7.92538 11.3357 7.93528 11.2651 7.9541 11.125C8.07751 10.2074 8.33518 9.47932 8.90723 8.90726C9.47928 8.33521 10.2074 8.07755 11.125 7.95414C12.0206 7.83373 13.1684 7.83304 14.6289 7.83305H14.7051Z" fill="white"/>
</svg>
