<svg width="58" height="57" viewBox="0 0 58 57" fill="none" xmlns="http://www.w3.org/2000/svg">
<g filter="url(#filter0_d_253_3597)">
<rect x="6" y="2" width="46" height="46" rx="12" fill="#16B157"/>
</g>
<path d="M28.083 26.1455C30.994 26.1455 33.3545 28.506 33.3545 31.417V33.25C33.3545 33.6296 33.0465 33.9373 32.667 33.9375H19.833C19.4535 33.9373 19.1455 33.6296 19.1455 33.25V31.417C19.1455 28.506 21.506 26.1455 24.417 26.1455H28.083ZM33.5811 26.1455C36.4921 26.1455 38.8516 28.506 38.8516 31.417V33.25C38.8516 33.6297 38.5438 33.9375 38.1641 33.9375H34.6094C34.6854 33.7225 34.7266 33.4911 34.7266 33.25V31.417C34.7266 29.2702 33.7094 27.3605 32.1299 26.1455H33.5811ZM26.25 16.0625C28.6547 16.0625 30.6045 18.0123 30.6045 20.417C30.6043 22.8216 28.6546 24.7705 26.25 24.7705C23.8454 24.7705 21.8957 22.8216 21.8955 20.417C21.8955 18.0123 23.8453 16.0625 26.25 16.0625ZM31.751 16.0625C34.1557 16.0625 36.1055 18.0123 36.1055 20.417C36.1053 22.8216 34.1556 24.7705 31.751 24.7705C31.2275 24.7705 30.7257 24.6781 30.2607 24.5088C31.3217 23.469 31.9804 22.0199 31.9805 20.417C31.9805 18.8139 31.3219 17.3641 30.2607 16.3242C30.7256 16.1549 31.2275 16.0625 31.751 16.0625Z" fill="white"/>
<defs>
<filter id="filter0_d_253_3597" x="0.5" y="-2.38419e-07" width="57" height="57" filterUnits="userSpaceOnUse" color-interpolation-filters="sRGB">
<feFlood flood-opacity="0" result="BackgroundImageFix"/>
<feColorMatrix in="SourceAlpha" type="matrix" values="0 0 0 0 0 0 0 0 0 0 0 0 0 0 0 0 0 0 127 0" result="hardAlpha"/>
<feOffset dy="3.5"/>
<feGaussianBlur stdDeviation="2.75"/>
<feColorMatrix type="matrix" values="0 0 0 0 0 0 0 0 0 0 0 0 0 0 0 0 0 0 0.02 0"/>
<feBlend mode="normal" in2="BackgroundImageFix" result="effect1_dropShadow_253_3597"/>
<feBlend mode="normal" in="SourceGraphic" in2="effect1_dropShadow_253_3597" result="shape"/>
</filter>
</defs>
</svg>
