<svg width="30" height="30" viewBox="0 0 30 30" fill="none" xmlns="http://www.w3.org/2000/svg">
<path d="M0 12C0 5.37258 5.37258 0 12 0H18C24.6274 0 30 5.37258 30 12V18C30 24.6274 24.6274 30 18 30H12C5.37258 30 0 24.6274 0 18V12Z" fill="#6A0EAD"/>
<path d="M17.3949 9.01788C16.7868 8.36132 15.9374 7.99976 14.9999 7.99976C14.0574 7.99976 13.2052 8.35913 12.5999 9.01163C11.988 9.67132 11.6899 10.5679 11.7599 11.536C11.8987 13.446 13.3521 14.9998 14.9999 14.9998C16.6477 14.9998 18.0987 13.4463 18.2396 11.5366C18.3105 10.5773 18.0105 9.68257 17.3949 9.01788Z" fill="white"/>
<path d="M20.4999 21.999H9.49993C9.35595 22.0009 9.21337 21.9706 9.08255 21.9105C8.95173 21.8503 8.83597 21.7617 8.74368 21.6512C8.54056 21.4084 8.45868 21.0768 8.51931 20.7415C8.78306 19.2784 9.60618 18.0493 10.8999 17.1865C12.0493 16.4206 13.5052 15.999 14.9999 15.999C16.4946 15.999 17.9506 16.4209 19.0999 17.1865C20.3937 18.049 21.2168 19.2781 21.4806 20.7412C21.5412 21.0765 21.4593 21.4081 21.2562 21.6509C21.1639 21.7615 21.0482 21.8501 20.9174 21.9103C20.7865 21.9706 20.6439 22.0009 20.4999 21.999Z" fill="white"/>
</svg>
