<svg width="30" height="30" viewBox="0 0 30 30" fill="none" xmlns="http://www.w3.org/2000/svg">
<path d="M0 12C0 5.37258 5.37258 0 12 0H18C24.6274 0 30 5.37258 30 12V18C30 24.6274 24.6274 30 18 30H12C5.37258 30 0 24.6274 0 18V12Z" fill="#6A0EAD"/>
<path d="M15.1737 10.1653C15.1272 10.1208 15.0653 10.0959 15.0009 10.0959C14.9365 10.0959 14.8746 10.1208 14.8281 10.1653L9.07495 15.6612C9.05052 15.6846 9.03108 15.7127 9.01781 15.7438C9.00455 15.7749 8.99773 15.8084 8.99776 15.8422L8.99683 21.0003C8.99683 21.2655 9.10218 21.5199 9.28972 21.7074C9.47726 21.8949 9.73161 22.0003 9.99683 22.0003H12.9999C13.1326 22.0003 13.2597 21.9476 13.3535 21.8538C13.4473 21.7601 13.4999 21.6329 13.4999 21.5003V17.2503C13.4999 17.184 13.5263 17.1204 13.5732 17.0735C13.6201 17.0266 13.6836 17.0003 13.7499 17.0003H16.2499C16.3163 17.0003 16.3798 17.0266 16.4267 17.0735C16.4736 17.1204 16.4999 17.184 16.4999 17.2503V21.5003C16.4999 21.6329 16.5526 21.7601 16.6464 21.8538C16.7402 21.9476 16.8673 22.0003 16.9999 22.0003H20.0018C20.267 22.0003 20.5214 21.8949 20.7089 21.7074C20.8965 21.5199 21.0018 21.2655 21.0018 21.0003V15.8422C21.0019 15.8084 20.995 15.7749 20.9818 15.7438C20.9685 15.7127 20.9491 15.6846 20.9246 15.6612L15.1737 10.1653Z" fill="white"/>
<path d="M22.3413 14.6307L20.0038 12.3944V9.00098C20.0038 8.86837 19.9511 8.74119 19.8574 8.64742C19.7636 8.55365 19.6364 8.50098 19.5038 8.50098H18.0038C17.8712 8.50098 17.744 8.55365 17.6503 8.64742C17.5565 8.74119 17.5038 8.86837 17.5038 9.00098V10.001L15.6938 8.27035C15.5244 8.0991 15.2726 8.00098 15.0004 8.00098C14.7291 8.00098 14.4779 8.0991 14.3085 8.27066L7.66163 14.63C7.46725 14.8175 7.44288 15.126 7.61975 15.3291C7.66417 15.3804 7.71855 15.4221 7.7796 15.4517C7.84064 15.4812 7.90706 15.4981 7.97483 15.5012C8.04259 15.5043 8.11028 15.4936 8.17377 15.4697C8.23725 15.4458 8.29522 15.4092 8.34413 15.3622L14.8285 9.16598C14.875 9.12147 14.9369 9.09663 15.0013 9.09663C15.0657 9.09663 15.1276 9.12147 15.1741 9.16598L21.6591 15.3622C21.7547 15.4538 21.8826 15.5038 22.0149 15.5013C22.1473 15.4987 22.2732 15.4437 22.3651 15.3485C22.5569 15.1497 22.541 14.8216 22.3413 14.6307Z" fill="white"/>
</svg>
