<svg width="30" height="30" viewBox="0 0 30 30" fill="none" xmlns="http://www.w3.org/2000/svg">
<path d="M0 12C0 5.37258 5.37258 0 12 0H18C24.6274 0 30 5.37258 30 12V18C30 24.6274 24.6274 30 18 30H12C5.37258 30 0 24.6274 0 18V12Z" fill="#6A0EAD"/>
<path fill-rule="evenodd" clip-rule="evenodd" d="M11 8.33331C10.4696 8.33331 9.96086 8.54403 9.58579 8.9191C9.21071 9.29417 9 9.80288 9 10.3333V19.6666C9 20.1971 9.21071 20.7058 9.58579 21.0809C9.96086 21.4559 10.4696 21.6666 11 21.6666H15C15.5304 21.6666 16.0391 21.4559 16.4142 21.0809C16.7893 20.7058 17 20.1971 17 19.6666V10.3333C17 9.80288 16.7893 9.29417 16.4142 8.9191C16.0391 8.54403 15.5304 8.33331 15 8.33331H11ZM17.862 11.862C17.987 11.737 18.1566 11.6668 18.3333 11.6668C18.5101 11.6668 18.6796 11.737 18.8047 11.862L21.4713 14.5286C21.5963 14.6537 21.6665 14.8232 21.6665 15C21.6665 15.1768 21.5963 15.3463 21.4713 15.4713L18.8047 18.138C18.6789 18.2594 18.5105 18.3266 18.3357 18.3251C18.1609 18.3236 17.9937 18.2535 17.8701 18.1299C17.7465 18.0063 17.6764 17.839 17.6749 17.6642C17.6734 17.4894 17.7406 17.321 17.862 17.1953L19.3907 15.6666H13.6667C13.4899 15.6666 13.3203 15.5964 13.1953 15.4714C13.0702 15.3464 13 15.1768 13 15C13 14.8232 13.0702 14.6536 13.1953 14.5286C13.3203 14.4036 13.4899 14.3333 13.6667 14.3333H19.3907L17.862 12.8046C17.737 12.6796 17.6668 12.5101 17.6668 12.3333C17.6668 12.1565 17.737 11.987 17.862 11.862Z" fill="white"/>
</svg>
