<svg width="24" height="25" viewBox="0 0 24 25" fill="none" xmlns="http://www.w3.org/2000/svg">
<path d="M19.0701 5.43001C17.4293 3.77851 15.2638 2.75122 12.9467 2.52525C10.6297 2.29928 8.30647 2.88878 6.3775 4.19214C4.44854 5.49549 3.03475 7.43101 2.37988 9.66502C1.72501 11.899 1.87009 14.2915 2.79012 16.43C2.88601 16.6288 2.91747 16.8525 2.88012 17.07L2.00012 21.3C1.96621 21.4622 1.97314 21.6302 2.02027 21.7891C2.06739 21.9479 2.15325 22.0926 2.27012 22.21C2.36592 22.3051 2.47999 22.3798 2.60545 22.4297C2.73091 22.4795 2.86516 22.5034 3.00012 22.5H3.20012L7.48012 21.64C7.69765 21.6139 7.91824 21.6449 8.12012 21.73C10.2586 22.65 12.6511 22.7951 14.8851 22.1402C17.1191 21.4854 19.0546 20.0716 20.358 18.1426C21.6613 16.2137 22.2508 13.8904 22.0249 11.5734C21.7989 9.25637 20.7716 7.09079 19.1201 5.45001L19.0701 5.43001ZM8.00012 13.5C7.80234 13.5 7.609 13.4414 7.44455 13.3315C7.2801 13.2216 7.15193 13.0654 7.07624 12.8827C7.00055 12.7 6.98075 12.4989 7.01933 12.3049C7.05792 12.1109 7.15316 11.9328 7.29301 11.7929C7.43286 11.653 7.61105 11.5578 7.80503 11.5192C7.99901 11.4806 8.20008 11.5004 8.3828 11.5761C8.56553 11.6518 8.72171 11.78 8.83159 11.9444C8.94147 12.1089 9.00012 12.3022 9.00012 12.5C9.00012 12.7652 8.89476 13.0196 8.70722 13.2071C8.51969 13.3947 8.26533 13.5 8.00012 13.5ZM12.0001 13.5C11.8023 13.5 11.609 13.4414 11.4445 13.3315C11.2801 13.2216 11.1519 13.0654 11.0762 12.8827C11.0006 12.7 10.9807 12.4989 11.0193 12.3049C11.0579 12.1109 11.1532 11.9328 11.293 11.7929C11.4329 11.653 11.611 11.5578 11.805 11.5192C11.999 11.4806 12.2001 11.5004 12.3828 11.5761C12.5655 11.6518 12.7217 11.78 12.8316 11.9444C12.9415 12.1089 13.0001 12.3022 13.0001 12.5C13.0001 12.7652 12.8948 13.0196 12.7072 13.2071C12.5197 13.3947 12.2653 13.5 12.0001 13.5ZM16.0001 13.5C15.8023 13.5 15.609 13.4414 15.4445 13.3315C15.2801 13.2216 15.1519 13.0654 15.0762 12.8827C15.0006 12.7 14.9807 12.4989 15.0193 12.3049C15.0579 12.1109 15.1532 11.9328 15.293 11.7929C15.4329 11.653 15.611 11.5578 15.805 11.5192C15.999 11.4806 16.2001 11.5004 16.3828 11.5761C16.5655 11.6518 16.7217 11.78 16.8316 11.9444C16.9415 12.1089 17.0001 12.3022 17.0001 12.5C17.0001 12.7652 16.8948 13.0196 16.7072 13.2071C16.5197 13.3947 16.2653 13.5 16.0001 13.5Z" fill="#6A0EAD"/>
</svg>
