<svg width="30" height="30" viewBox="0 0 30 30" fill="none" xmlns="http://www.w3.org/2000/svg">
<path d="M0 12C0 5.37258 5.37258 0 12 0H18C24.6274 0 30 5.37258 30 12V18C30 24.6274 24.6274 30 18 30H12C5.37258 30 0 24.6274 0 18V12Z" fill="#6A0EAD"/>
<path d="M8 18.7495C8 19.2136 8.18437 19.6588 8.51256 19.9869C8.84075 20.3151 9.28587 20.4995 9.75 20.4995H20.25C20.7141 20.4995 21.1592 20.3151 21.4874 19.9869C21.8156 19.6588 22 19.2136 22 18.7495V13.937H8V18.7495ZM10.0625 16.3745C10.0625 16.1259 10.1613 15.8874 10.3371 15.7116C10.5129 15.5358 10.7514 15.437 11 15.437H12.5C12.7486 15.437 12.9871 15.5358 13.1629 15.7116C13.3387 15.8874 13.4375 16.1259 13.4375 16.3745V16.9995C13.4375 17.2482 13.3387 17.4866 13.1629 17.6624C12.9871 17.8382 12.7486 17.937 12.5 17.937H11C10.7514 17.937 10.5129 17.8382 10.3371 17.6624C10.1613 17.4866 10.0625 17.2482 10.0625 16.9995V16.3745Z" fill="white"/>
<path d="M20.25 9.49902H9.75C9.28587 9.49902 8.84075 9.6834 8.51256 10.0116C8.18437 10.3398 8 10.7849 8 11.249V12.0615H22V11.249C22 10.7849 21.8156 10.3398 21.4874 10.0116C21.1592 9.6834 20.7141 9.49902 20.25 9.49902Z" fill="white"/>
</svg>
